<svg id="Layer_1" enable-background="new 0 0 512 512" height="512" viewBox="0 0 512 512" width="512" xmlns="http://www.w3.org/2000/svg"><path id="Briefcase" d="m416 128h-64v-16c0-26.469-21.531-48-48-48h-96c-26.469 0-48 21.531-48 48v16h-64c-26.469 0-48 21.531-48 48v64c0 14.131 6.251 26.724 16 35.516v92.484c0 44.109 35.891 80 80 80h224c44.109 0 80-35.891 80-80v-92.484c9.749-8.792 16-21.385 16-35.516v-64c0-26.469-21.531-48-48-48zm-224-16c0-8.82 7.172-16 16-16h96c8.828 0 16 7.18 16 16v16h-128zm-112 64c0-8.82 7.172-16 16-16h320c8.828 0 16 7.18 16 16v64c0 8.82-7.172 16-16 16h-112v-16c0-8.836-7.156-16-16-16h-64c-8.844 0-16 7.164-16 16v16h-112c-8.828 0-16-7.18-16-16zm192 80v32h-32v-32zm144 112c0 26.469-21.531 48-48 48h-224c-26.469 0-48-21.531-48-48v-80h112v16c0 8.836 7.156 16 16 16h64c8.844 0 16-7.164 16-16v-16h112z"/></svg>