<svg id="Layer_1" enable-background="new 0 0 512 512" height="512" viewBox="0 0 512 512" width="512" xmlns="http://www.w3.org/2000/svg"><path id="PC" d="m384 64h-256c-44.109 0-80 35.891-80 80v160c0 44.109 35.891 80 80 80h112v32h-48c-8.836 0-16 7.164-16 16s7.164 16 16 16h128c8.836 0 16-7.164 16-16s-7.164-16-16-16h-48v-32h112c44.109 0 80-35.891 80-80v-160c0-44.109-35.891-80-80-80zm-256 32h256c26.469 0 48 21.531 48 48v144h-352v-144c0-26.469 21.531-48 48-48zm256 256h-256c-20.831 0-38.425-13.416-45.051-32h346.103c-6.626 18.584-24.221 32-45.052 32z"/></svg>