<svg id="SVGRoot" height="512" viewBox="0 0 32 32" width="512" xmlns="http://www.w3.org/2000/svg"><path d="m23.029 2a1 1 0 0 0 -.73633.29297 1 1 0 0 0 0 1.4141l4.293 4.293h-6.5859c-3.3019 0-6 2.6981-6 6v5a1 1 0 0 0 1 1 1 1 0 0 0 1-1v-5c0-2.221 1.779-4 4-4h6.5859l-4.293 4.293a1 1 0 0 0 0 1.4141 1 1 0 0 0 1.4141 0l6-6a1.0001 1.0001 0 0 0 0-1.4141l-6-6a1 1 0 0 0 -.67773-.29297z" font-feature-settings="normal" font-variant-alternates="normal" font-variant-caps="normal" font-variant-east-asian="normal" font-variant-ligatures="normal" font-variant-numeric="normal" font-variant-position="normal" font-variation-settings="normal" inline-size="0" isolation="auto" mix-blend-mode="normal" shape-margin="0" shape-padding="0" text-decoration-color="rgb(0,0,0)" text-decoration-line="none" text-decoration-style="solid" text-indent="0" text-orientation="mixed" text-transform="none" white-space="normal"/><path d="m16 2c-7.7201 0-14 6.2799-14 14s6.2799 14 14 14 14-6.2799 14-14c0-.72137-.055005-1.4415-.16602-2.1543a1 1 0 0 0 -1.1426-.83398 1 1 0 0 0 -.83398 1.1426c.095152.61095.14258 1.2274.14258 1.8457 0 6.6393-5.3607 12-12 12s-12-5.3607-12-12 5.3607-12 12-12c.93277 0 1.862.10891 2.7695.32422a1 1 0 0 0 1.2051-.74219 1 1 0 0 0 -.74219-1.2031c-1.0588-.25119-2.1442-.37891-3.2324-.37891z" font-feature-settings="normal" font-variant-alternates="normal" font-variant-caps="normal" font-variant-east-asian="normal" font-variant-ligatures="normal" font-variant-numeric="normal" font-variant-position="normal" font-variation-settings="normal" inline-size="0" isolation="auto" mix-blend-mode="normal" paint-order="fill markers stroke" shape-margin="0" shape-padding="0" text-decoration-color="rgb(0,0,0)" text-decoration-line="none" text-decoration-style="solid" text-indent="0" text-orientation="mixed" text-transform="none" white-space="normal"/></svg>